<svg width="23" height="13" viewBox="0 0 23 13" fill="none" xmlns="http://www.w3.org/2000/svg">
<path d="M9.522 4.954L9.09 8.446H11.592V9.76H8.928L8.532 13H7.254L7.65 9.76H4.248L3.852 13H2.574L2.97 9.76H0.486V8.446H3.132L3.582 4.954H1.062V3.64H3.744L4.14 0.399999H5.418L5.022 3.64H8.406L8.802 0.399999H10.08L9.684 3.64H12.168V4.954H9.522ZM8.244 4.954H4.86L4.41 8.446H7.812L8.244 4.954ZM22.3763 11.434V13H13.3223V11.776L18.4523 6.826C19.0763 6.226 19.4963 5.71 19.7123 5.278C19.9283 4.834 20.0363 4.39 20.0363 3.946C20.0363 3.286 19.8023 2.776 19.3343 2.416C18.8783 2.044 18.2183 1.858 17.3543 1.858C15.9623 1.858 14.8883 2.314 14.1323 3.226L12.9083 2.164C13.4003 1.564 14.0423 1.096 14.8343 0.76C15.6383 0.424 16.5323 0.256 17.5163 0.256C18.8363 0.256 19.8863 0.574 20.6663 1.21C21.4463 1.834 21.8363 2.686 21.8363 3.766C21.8363 4.438 21.6923 5.074 21.4043 5.674C21.1163 6.274 20.5703 6.958 19.7663 7.726L15.9143 11.434H22.3763Z" fill="white"/>
</svg>
